<svg width="12" height="10" viewBox="0 0 12 10" fill="none" xmlns="http://www.w3.org/2000/svg">
<path d="M0 4.99993C0 4.71969 0.205203 4.48809 0.47144 4.45143L0.545455 4.44638L10.1338 4.44682L6.66983 0.945805C6.45636 0.730097 6.45561 0.379612 6.66817 0.162973C6.8614 -0.0339699 7.16439 -0.0524979 7.37826 0.107824L7.43955 0.161288L11.8396 4.60737C11.8677 4.63581 11.8921 4.66658 11.9129 4.69908C11.9187 4.70886 11.9247 4.71886 11.9304 4.72907C11.9356 4.73782 11.9403 4.74691 11.9447 4.75609C11.9508 4.76946 11.9569 4.78327 11.9623 4.79736C11.9668 4.80822 11.9705 4.81879 11.9738 4.82944C11.9779 4.84265 11.9818 4.85672 11.9851 4.87101C11.9876 4.88098 11.9896 4.89059 11.9913 4.90022C11.9938 4.91457 11.9958 4.92941 11.9973 4.94442C11.9986 4.95588 11.9993 4.96723 11.9998 4.97858C11.9999 4.98547 12 4.99268 12 4.99993L11.9997 5.02137C11.9993 5.03223 11.9986 5.04309 11.9975 5.05392L12 4.99993C12 5.03486 11.9968 5.06903 11.9907 5.10217C11.9893 5.11008 11.9876 5.11821 11.9858 5.1263C11.9819 5.14296 11.9774 5.15901 11.9722 5.17474C11.9697 5.18256 11.9668 5.19091 11.9636 5.1992C11.9572 5.21585 11.9503 5.23173 11.9427 5.2472C11.9391 5.25447 11.9352 5.26208 11.931 5.26962C11.9242 5.28191 11.9172 5.2936 11.9098 5.30499C11.9045 5.31305 11.8987 5.32144 11.8927 5.32969L11.8879 5.33607C11.8733 5.35556 11.8573 5.37402 11.8402 5.39134L11.8396 5.39186L7.43959 9.83868C7.22613 10.0544 6.88077 10.0537 6.6682 9.83706C6.47495 9.64013 6.45797 9.33257 6.61686 9.1162L6.6698 9.05423L10.1324 5.55392L0.545455 5.55347C0.244208 5.55347 0 5.30564 0 4.99993Z" fill="white"/>
</svg>
