<svg width="16" height="16" viewBox="0 0 16 16" fill="none" xmlns="http://www.w3.org/2000/svg">
<path fill-rule="evenodd" clip-rule="evenodd" d="M11.0314 1.48903L1.45455 11.0659V14.5455H4.93409L14.511 4.96858L11.0314 1.48903ZM10.0618 0.401638C10.3189 0.144474 10.6677 0 11.0314 0C11.3951 0 11.7439 0.144474 12.0011 0.401638H11.0314H10.0618ZM10.0618 0.401638H12.0011H10.0618ZM12.0011 0.401638L15.5984 3.99894C15.8555 4.2561 16 4.60489 16 4.96858C16 5.33227 15.8555 5.68106 15.5984 5.93822L5.7496 15.787C5.61321 15.9234 5.42822 16 5.23534 16H1.37128C1.0076 16 0.658805 15.8555 0.401639 15.5984C0.144474 15.3412 0 14.9924 0 14.6287V11.0314C-5.4186e-08 10.8513 0.0354692 10.673 0.104383 10.5067C0.173296 10.3403 0.274304 10.1891 0.40164 10.0618L10.0618 0.401638H12.0011ZM11.0314 0.401638H12.0011H11.0314Z" fill="white"/>
<path fill-rule="evenodd" clip-rule="evenodd" d="M7.94116 2.52228C8.22518 2.23826 8.68566 2.23826 8.96968 2.52228L13.4777 7.03034C13.7618 7.31436 13.7618 7.77484 13.4777 8.05886C13.1937 8.34288 12.7332 8.34288 12.4492 8.05886L7.94116 3.5508C7.65715 3.26678 7.65715 2.8063 7.94116 2.52228Z" fill="white"/>
<path fill-rule="evenodd" clip-rule="evenodd" d="M0.253907 10.2914C0.537924 10.0074 0.998408 10.0074 1.28243 10.2914L5.5365 14.5455H14.8954C15.2971 14.5455 15.6227 14.8711 15.6227 15.2727C15.6227 15.6744 15.2971 16 14.8954 16H5.23526C5.04237 16 4.85739 15.9234 4.721 15.787L0.253907 11.3199C-0.0301109 11.0359 -0.0301109 10.5754 0.253907 10.2914Z" fill="white"/>
</svg>
