<svg width="24" height="18" viewBox="0 0 24 18" fill="none" xmlns="http://www.w3.org/2000/svg">
<g opacity="0.6">
<path d="M14.6428 12.0271C13.8718 12.7568 12.854 13.1378 11.8133 13.0861C10.7727 13.0345 9.79429 12.5545 9.09345 11.7517C8.39262 10.9489 8.02671 9.88912 8.07622 8.80542C8.12573 7.72173 8.5866 6.70289 9.35746 5.97302" stroke="white" stroke-width="1.5" stroke-linecap="round" stroke-linejoin="round"/>
<path d="M6.69588 2.92444C2.69176 5.03592 1 9.0001 1 9.0001C1 9.0001 4.14286 16.3629 12 16.3629C13.8409 16.3782 15.6589 15.9367 17.3033 15.0748" stroke="white" stroke-width="1.5" stroke-linecap="round" stroke-linejoin="round"/>
<path d="M19.917 13.2034C22.0583 11.2063 23 9.00007 23 9.00007C23 9.00007 19.8572 1.63564 12 1.63564C11.3195 1.63448 10.6401 1.69209 9.96875 1.80788" stroke="white" stroke-width="1.5" stroke-linecap="round" stroke-linejoin="round"/>
<path d="M12.7393 4.98132C13.5742 5.14829 14.3347 5.59266 14.9067 6.2478C15.4786 6.90294 15.8311 7.73352 15.9114 8.61494" stroke="white" stroke-width="1.5" stroke-linecap="round" stroke-linejoin="round"/>
</g>
</svg>
