<svg width="24" height="20" viewBox="0 0 24 20" fill="none" xmlns="http://www.w3.org/2000/svg">
<g opacity="0.6">
<path d="M4.14307 1L19.8574 19" stroke="white" stroke-width="1.5" stroke-linecap="round" stroke-linejoin="round"/>
<path d="M14.6428 13.0271C13.8718 13.7568 12.854 14.1378 11.8133 14.0861C10.7727 14.0345 9.79429 13.5545 9.09345 12.7517C8.39262 11.9489 8.02671 10.8891 8.07622 9.80542C8.12573 8.72173 8.5866 7.70289 9.35746 6.97302" stroke="white" stroke-width="1.5" stroke-linecap="round" stroke-linejoin="round"/>
<path d="M6.69588 3.92444C2.69176 6.03592 1 10.0001 1 10.0001C1 10.0001 4.14286 17.3629 12 17.3629C13.8409 17.3782 15.6589 16.9367 17.3033 16.0748" stroke="white" stroke-width="1.5" stroke-linecap="round" stroke-linejoin="round"/>
<path d="M19.917 14.2034C22.0583 12.2063 23 10.0001 23 10.0001C23 10.0001 19.8572 2.63564 12 2.63564C11.3195 2.63448 10.6401 2.69209 9.96875 2.80788" stroke="white" stroke-width="1.5" stroke-linecap="round" stroke-linejoin="round"/>
<path d="M12.7393 5.98132C13.5742 6.14829 14.3347 6.59266 14.9067 7.2478C15.4786 7.90294 15.8311 8.73352 15.9114 9.61494" stroke="white" stroke-width="1.5" stroke-linecap="round" stroke-linejoin="round"/>
</g>
</svg>
