<svg width="24" height="24" viewBox="0 0 24 24" fill="none" xmlns="http://www.w3.org/2000/svg">
<path d="M14.2969 12C14.2969 13.2686 13.2686 14.2969 12 14.2969C10.7314 14.2969 9.70312 13.2686 9.70312 12C9.70312 10.7314 10.7314 9.70312 12 9.70312C13.2686 9.70312 14.2969 10.7314 14.2969 12Z" fill="white"/>
<path d="M17.3717 7.93616C17.2612 7.63696 17.0851 7.36615 16.8562 7.14386C16.6339 6.91498 16.3633 6.73883 16.0639 6.62842C15.8211 6.53412 15.4564 6.42188 14.7846 6.3913C14.0578 6.35815 13.8399 6.35101 12.0001 6.35101C10.16 6.35101 9.94215 6.35797 9.21559 6.39111C8.54378 6.42188 8.17885 6.53412 7.93623 6.62842C7.63686 6.73883 7.36604 6.91498 7.14394 7.14386C6.91505 7.36615 6.73891 7.63678 6.62831 7.93616C6.53401 8.17896 6.42177 8.54388 6.39119 9.2157C6.35805 9.94226 6.35091 10.1602 6.35091 12.0002C6.35091 13.84 6.35805 14.0579 6.39119 14.7847C6.42177 15.4565 6.53401 15.8212 6.62831 16.064C6.73891 16.3634 6.91487 16.634 7.14375 16.8563C7.36604 17.0852 7.63667 17.2614 7.93605 17.3718C8.17885 17.4662 8.54378 17.5785 9.21559 17.6091C9.94215 17.6422 10.1599 17.6492 11.9999 17.6492C13.8401 17.6492 14.058 17.6422 14.7844 17.6091C15.4562 17.5785 15.8211 17.4662 16.0639 17.3718C16.6649 17.14 17.1398 16.665 17.3717 16.064C17.466 15.8212 17.5782 15.4565 17.609 14.7847C17.6421 14.0579 17.6491 13.84 17.6491 12.0002C17.6491 10.1602 17.6421 9.94226 17.609 9.2157C17.5784 8.54388 17.4661 8.17896 17.3717 7.93616ZM12.0001 15.5383C10.0458 15.5383 8.46156 13.9543 8.46156 12C8.46156 10.0457 10.0458 8.46167 12.0001 8.46167C13.9542 8.46167 15.5384 10.0457 15.5384 12C15.5384 13.9543 13.9542 15.5383 12.0001 15.5383ZM15.6783 9.14868C15.2216 9.14868 14.8514 8.77844 14.8514 8.32178C14.8514 7.86511 15.2216 7.49487 15.6783 7.49487C16.135 7.49487 16.5052 7.86511 16.5052 8.32178C16.505 8.77844 16.135 9.14868 15.6783 9.14868Z" fill="white"/>
<path d="M12 0C5.3736 0 0 5.3736 0 12C0 18.6264 5.3736 24 12 24C18.6264 24 24 18.6264 24 12C24 5.3736 18.6264 0 12 0ZM18.8491 14.8409C18.8157 15.5744 18.6991 16.0752 18.5288 16.5135C18.1708 17.4391 17.4391 18.1708 16.5135 18.5288C16.0754 18.6991 15.5744 18.8156 14.8411 18.8491C14.1063 18.8826 13.8715 18.8906 12.0002 18.8906C10.1287 18.8906 9.8941 18.8826 9.15912 18.8491C8.42578 18.8156 7.9248 18.6991 7.48663 18.5288C7.02667 18.3558 6.61029 18.0846 6.26605 17.7339C5.91559 17.3899 5.64441 16.9733 5.47137 16.5135C5.30109 16.0754 5.18445 15.5744 5.15112 14.8411C5.11725 14.1061 5.10938 13.8713 5.10938 12C5.10938 10.1287 5.11725 9.89392 5.15094 9.15912C5.18427 8.4256 5.30072 7.9248 5.47101 7.48645C5.64404 7.02667 5.91541 6.61011 6.26605 6.26605C6.61011 5.91541 7.02667 5.64423 7.48645 5.47119C7.9248 5.3009 8.4256 5.18445 9.15912 5.15094C9.89392 5.11743 10.1287 5.10938 12 5.10938C13.8713 5.10938 14.1061 5.11743 14.8409 5.15112C15.5744 5.18445 16.0752 5.3009 16.5135 5.47101C16.9733 5.64404 17.3899 5.91541 17.7341 6.26605C18.0846 6.61029 18.356 7.02667 18.5288 7.48645C18.6993 7.9248 18.8157 8.4256 18.8492 9.15912C18.8828 9.89392 18.8906 10.1287 18.8906 12C18.8906 13.8713 18.8828 14.1061 18.8491 14.8409Z" fill="white"/>
</svg>
