<svg width="63" height="78" viewBox="0 0 63 78" fill="none" xmlns="http://www.w3.org/2000/svg">
<path d="M50.6778 31.7979C50.6778 31.6982 50.7772 31.5985 50.7772 31.4989C50.7772 23.1257 50.7772 14.8523 50.7772 6.47919C50.7772 6.37951 50.7772 6.27983 50.6778 6.27983C50.0816 6.37951 21.7603 17.1449 20.6672 17.6433C20.6672 17.8427 20.5679 17.9424 20.5679 18.1417C20.5679 18.3411 20.5679 18.5405 20.5679 18.8395C20.5679 30.203 20.5679 41.5665 20.5679 52.93C20.5679 54.6246 20.2697 56.1198 19.4748 57.615C17.5867 61.4028 13.6118 63.6955 9.43812 63.3964C3.47576 62.898 -0.69789 57.615 0.0970918 51.6342C0.693328 47.348 3.87325 43.9588 8.04691 42.962C10.6306 42.364 13.1149 42.7627 15.4005 44.0585C15.6986 44.1582 15.8973 44.4572 16.1955 44.4572C16.2948 43.5601 16.1955 42.663 16.1955 41.7659C16.1955 40.8688 16.1955 39.9716 16.1955 39.0745C16.1955 38.1774 16.1955 37.2803 16.1955 36.3832C16.1955 35.486 16.1955 34.5889 16.1955 33.6918C16.1955 32.7947 16.1955 31.8976 16.1955 31.0005C16.1955 30.1033 16.1955 29.2062 16.1955 28.3091C16.1955 27.412 16.1955 26.5149 16.1955 25.6177C16.1955 24.7206 16.1955 23.8235 16.1955 22.9264C16.1955 22.0293 16.1955 21.1321 16.1955 20.235C16.1955 19.3379 16.1955 18.4408 16.1955 17.5437C16.1955 16.6465 16.1955 15.7494 16.1955 14.8523C16.2948 14.7526 16.2948 14.7526 16.2948 14.7526C16.2948 14.7526 16.2948 14.7526 16.3942 14.6529C21.5616 12.6593 26.6296 10.7654 31.797 8.77183C39.548 5.78144 47.1997 2.89072 54.7521 0C54.7521 0 54.8514 0 54.9508 0C54.9508 0.19936 55.0502 0.29904 55.0502 0.4984C55.0502 0.797439 55.0502 1.09648 55.0502 1.39552C55.0502 14.3539 55.0502 27.2126 55.0502 40.171C55.0502 42.663 54.2552 44.9556 52.6652 46.8496C50.5784 49.3416 47.796 50.6374 44.5167 50.5377C39.0512 50.438 35.1757 46.2515 34.5794 41.5665C33.9832 37.2803 36.3681 32.2963 41.3368 30.5021C44.3179 29.5053 47.1997 29.7046 49.8828 31.2995C50.1809 31.4989 50.3797 31.5985 50.6778 31.7979Z" fill="#714BF6"/>
<path d="M58.8263 50.0393C60.3169 50.2387 61.6087 50.438 63 50.6374C62.9006 52.5313 60.5156 58.2131 58.3294 61.5025C54.6526 67.0846 49.7834 71.4705 43.7217 74.3612C37.7593 77.2519 31.3994 78.4481 24.8408 77.85C19.4747 77.4513 14.1086 75.5574 11.5249 73.9625C12.1211 72.6667 12.8167 71.4705 13.413 70.2743C13.6117 70.374 13.8105 70.374 14.0092 70.4737C16.096 71.4705 18.2822 72.2679 20.5678 72.7663C23.9465 73.5638 27.3252 73.7631 30.8032 73.4641C34.48 73.1651 38.0574 72.1683 41.3367 70.5734C47.3984 67.6827 52.069 63.3964 55.547 57.615C56.8388 55.422 57.8326 53.1294 58.5282 50.7371C58.5282 50.6374 58.6276 50.438 58.8263 50.0393Z" fill="#714BF6"/>
</svg>
