<svg width="16" height="16" viewBox="0 0 16 16" fill="none" xmlns="http://www.w3.org/2000/svg">
<path d="M15.787 14.7585L10.8281 9.79961C11.6381 8.76902 12.1218 7.4704 12.1218 6.0609C12.1218 2.71888 9.40287 0 6.06086 0C2.71889 0 0 2.71888 0 6.06085C0 9.40281 2.71889 12.1217 6.06086 12.1217C7.47031 12.1217 8.76898 11.6381 9.79958 10.8281L14.7585 15.787C14.9005 15.929 15.0866 16 15.2728 16C15.4589 16 15.645 15.929 15.787 15.787C16.071 15.503 16.071 15.0425 15.787 14.7585ZM1.45455 6.06085C1.45455 3.52092 3.52093 1.45455 6.06086 1.45455C8.60079 1.45455 10.6672 3.52092 10.6672 6.06085C10.6672 8.60078 8.60079 10.6672 6.06086 10.6672C3.52093 10.6672 1.45455 8.60078 1.45455 6.06085Z" fill="#080D2B"/>
</svg>
